<svg xmlns="http://www.w3.org/2000/svg" width="920" height="560" viewBox="0 0 920 560" role="img">
<style>text{font-family:-apple-system,BlinkMacSystemFont,"Segoe UI",sans-serif;fill:#20242a} .title{font-size:20px;font-weight:600}.label{font-size:13px}.tick{font-size:12px;fill:#555f6d}.legend{font-size:13px}.grid{stroke:#d8dde6;stroke-width:1}.axis{stroke:#555f6d;stroke-width:1.2}</style>
<title>Mean distance distortion by stick count</title>
<text x="460.0" y="38.0" class="title" text-anchor="middle" >Mean Distance Distortion by Stick Count</text>
<line x1="82" y1="447.0" x2="862" y2="447.0" class="grid"/>
<text x="72.0" y="451.0" class="tick" text-anchor="end" >0</text>
<line x1="82" y1="380.6" x2="862" y2="380.6" class="grid"/>
<text x="72.0" y="384.6" class="tick" text-anchor="end" >2</text>
<line x1="82" y1="314.3" x2="862" y2="314.3" class="grid"/>
<text x="72.0" y="318.3" class="tick" text-anchor="end" >4</text>
<line x1="82" y1="247.9" x2="862" y2="247.9" class="grid"/>
<text x="72.0" y="251.9" class="tick" text-anchor="end" >6</text>
<line x1="82" y1="181.5" x2="862" y2="181.5" class="grid"/>
<text x="72.0" y="185.5" class="tick" text-anchor="end" >8</text>
<line x1="82" y1="115.2" x2="862" y2="115.2" class="grid"/>
<text x="72.0" y="119.2" class="tick" text-anchor="end" >10</text>
<line x1="82.0" y1="447" x2="82.0" y2="452" class="axis"/>
<text x="82.0" y="469.0" class="tick" text-anchor="middle" >5</text>
<line x1="193.4" y1="447" x2="193.4" y2="452" class="axis"/>
<text x="193.4" y="469.0" class="tick" text-anchor="middle" >6</text>
<line x1="304.9" y1="447" x2="304.9" y2="452" class="axis"/>
<text x="304.9" y="469.0" class="tick" text-anchor="middle" >7</text>
<line x1="416.3" y1="447" x2="416.3" y2="452" class="axis"/>
<text x="416.3" y="469.0" class="tick" text-anchor="middle" >8</text>
<line x1="527.7" y1="447" x2="527.7" y2="452" class="axis"/>
<text x="527.7" y="469.0" class="tick" text-anchor="middle" >9</text>
<line x1="639.1" y1="447" x2="639.1" y2="452" class="axis"/>
<text x="639.1" y="469.0" class="tick" text-anchor="middle" >10</text>
<line x1="750.6" y1="447" x2="750.6" y2="452" class="axis"/>
<text x="750.6" y="469.0" class="tick" text-anchor="middle" >11</text>
<line x1="862.0" y1="447" x2="862.0" y2="452" class="axis"/>
<text x="862.0" y="469.0" class="tick" text-anchor="middle" >12</text>
<line x1="82" y1="447" x2="862" y2="447" class="axis"/>
<line x1="82" y1="82" x2="82" y2="447" class="axis"/>
<text x="472.0" y="492.0" class="label" text-anchor="middle" >Number of vertices</text>
<text x="18.0" y="264.5" class="label" text-anchor="middle" transform="rotate(-90 18 264.5)">Mean max/min distortion</text>
<polyline points="82.00,383.29 193.43,365.57 304.86,349.41 416.29,332.22 527.71,320.31 639.14,327.05 750.57,295.16 862.00,300.97" fill="none" stroke="#1f77b4" stroke-width="2.6" stroke-linecap="round" stroke-linejoin="round"/>
<circle cx="82.00" cy="383.29" r="4" fill="#fff" stroke="#1f77b4" stroke-width="2"/>
<circle cx="193.43" cy="365.57" r="4" fill="#fff" stroke="#1f77b4" stroke-width="2"/>
<circle cx="304.86" cy="349.41" r="4" fill="#fff" stroke="#1f77b4" stroke-width="2"/>
<circle cx="416.29" cy="332.22" r="4" fill="#fff" stroke="#1f77b4" stroke-width="2"/>
<circle cx="527.71" cy="320.31" r="4" fill="#fff" stroke="#1f77b4" stroke-width="2"/>
<circle cx="639.14" cy="327.05" r="4" fill="#fff" stroke="#1f77b4" stroke-width="2"/>
<circle cx="750.57" cy="295.16" r="4" fill="#fff" stroke="#1f77b4" stroke-width="2"/>
<circle cx="862.00" cy="300.97" r="4" fill="#fff" stroke="#1f77b4" stroke-width="2"/>
<polyline points="82.00,368.59 193.43,328.44 304.86,303.75 416.29,257.63 527.71,245.72 639.14,218.94 750.57,172.72 862.00,144.28" fill="none" stroke="#0b4f8a" stroke-width="2.6" stroke-linecap="round" stroke-linejoin="round"/>
<circle cx="82.00" cy="368.59" r="4" fill="#fff" stroke="#0b4f8a" stroke-width="2"/>
<circle cx="193.43" cy="328.44" r="4" fill="#fff" stroke="#0b4f8a" stroke-width="2"/>
<circle cx="304.86" cy="303.75" r="4" fill="#fff" stroke="#0b4f8a" stroke-width="2"/>
<circle cx="416.29" cy="257.63" r="4" fill="#fff" stroke="#0b4f8a" stroke-width="2"/>
<circle cx="527.71" cy="245.72" r="4" fill="#fff" stroke="#0b4f8a" stroke-width="2"/>
<circle cx="639.14" cy="218.94" r="4" fill="#fff" stroke="#0b4f8a" stroke-width="2"/>
<circle cx="750.57" cy="172.72" r="4" fill="#fff" stroke="#0b4f8a" stroke-width="2"/>
<circle cx="862.00" cy="144.28" r="4" fill="#fff" stroke="#0b4f8a" stroke-width="2"/>
<polyline points="82.00,344.87 193.43,324.66 304.86,321.81 416.29,294.06 527.71,295.49 639.14,281.65 750.57,281.26 862.00,271.77" fill="none" stroke="#d55e00" stroke-width="2.6" stroke-linecap="round" stroke-linejoin="round" stroke-dasharray="7 5"/>
<circle cx="82.00" cy="344.87" r="4" fill="#fff" stroke="#d55e00" stroke-width="2"/>
<circle cx="193.43" cy="324.66" r="4" fill="#fff" stroke="#d55e00" stroke-width="2"/>
<circle cx="304.86" cy="321.81" r="4" fill="#fff" stroke="#d55e00" stroke-width="2"/>
<circle cx="416.29" cy="294.06" r="4" fill="#fff" stroke="#d55e00" stroke-width="2"/>
<circle cx="527.71" cy="295.49" r="4" fill="#fff" stroke="#d55e00" stroke-width="2"/>
<circle cx="639.14" cy="281.65" r="4" fill="#fff" stroke="#d55e00" stroke-width="2"/>
<circle cx="750.57" cy="281.26" r="4" fill="#fff" stroke="#d55e00" stroke-width="2"/>
<circle cx="862.00" cy="271.77" r="4" fill="#fff" stroke="#d55e00" stroke-width="2"/>
<polyline points="82.00,303.59 193.43,258.83 304.86,249.14 416.29,200.39 527.71,173.28 639.14,149.92 750.57,136.22 862.00,89.47" fill="none" stroke="#8f3b00" stroke-width="2.6" stroke-linecap="round" stroke-linejoin="round" stroke-dasharray="7 5"/>
<circle cx="82.00" cy="303.59" r="4" fill="#fff" stroke="#8f3b00" stroke-width="2"/>
<circle cx="193.43" cy="258.83" r="4" fill="#fff" stroke="#8f3b00" stroke-width="2"/>
<circle cx="304.86" cy="249.14" r="4" fill="#fff" stroke="#8f3b00" stroke-width="2"/>
<circle cx="416.29" cy="200.39" r="4" fill="#fff" stroke="#8f3b00" stroke-width="2"/>
<circle cx="527.71" cy="173.28" r="4" fill="#fff" stroke="#8f3b00" stroke-width="2"/>
<circle cx="639.14" cy="149.92" r="4" fill="#fff" stroke="#8f3b00" stroke-width="2"/>
<circle cx="750.57" cy="136.22" r="4" fill="#fff" stroke="#8f3b00" stroke-width="2"/>
<circle cx="862.00" cy="89.47" r="4" fill="#fff" stroke="#8f3b00" stroke-width="2"/>
<line x1="110" y1="492" x2="144" y2="492" stroke="#1f77b4" stroke-width="2.6" stroke-linecap="round"/>
<circle cx="127" cy="492" r="4" fill="#fff" stroke="#1f77b4" stroke-width="2"/>
<text x="154.0" y="496.0" class="legend" text-anchor="start" >Haar edge max/min</text>
<line x1="330" y1="492" x2="364" y2="492" stroke="#0b4f8a" stroke-width="2.6" stroke-linecap="round"/>
<circle cx="347" cy="492" r="4" fill="#fff" stroke="#0b4f8a" stroke-width="2"/>
<text x="374.0" y="496.0" class="legend" text-anchor="start" >Haar all-pair max/min</text>
<line x1="110" y1="524" x2="144" y2="524" stroke="#d55e00" stroke-width="2.6" stroke-linecap="round" stroke-dasharray="7 5"/>
<circle cx="127" cy="524" r="4" fill="#fff" stroke="#d55e00" stroke-width="2"/>
<text x="154.0" y="528.0" class="legend" text-anchor="start" >Gaussian edge max/min</text>
<line x1="330" y1="524" x2="364" y2="524" stroke="#8f3b00" stroke-width="2.6" stroke-linecap="round" stroke-dasharray="7 5"/>
<circle cx="347" cy="524" r="4" fill="#fff" stroke="#8f3b00" stroke-width="2"/>
<text x="374.0" y="528.0" class="legend" text-anchor="start" >Gaussian all-pair max/min</text>
</svg>
